IKResults C02
version=1
nRows=9
nColumns=24
inDegrees=yes

Units are S.I. units (second, meters, Newtons, ...)
If the header above contains a line with 'inDegrees', this indicates whether rotational values are in degrees (yes) or radians (no).

endheader
time	pelvis_tilt	pelvis_list	pelvis_rotation	pelvis_tx	pelvis_ty	pelvis_tz	hip_flexion_r	hip_adduction_r	hip_rotation_r	knee_angle_r	ankle_angle_r	subtalar_angle_r	mtp_angle_r	hip_flexion_l	hip_adduction_l	hip_rotation_l	knee_angle_l	ankle_angle_l	subtalar_angle_l	mtp_angle_l	lumbar_extension	lumbar_bending	lumbar_rotation
      6.89000000	     -6.56712210	      4.84040162	    -80.00555589	     -0.27954408	      0.95305264	     -2.80762618	     16.77145369	      9.17098453	     -5.05316478	    -13.32328865	      7.55144050	    -11.40430172	      0.00000000	     28.19850180	     -5.34489899	      4.73252411	    -71.79633413	     -0.90587820	    -15.24313954	      0.00000000	    -10.71036820	      7.34540412	     -0.40263748
      6.90000000	     -6.42753656	      4.66118147	    -80.54282117	     -0.28108798	      0.95442612	     -2.79185199	     15.22646756	      9.41081340	     -4.98594530	    -12.88730847	      8.71319145	     -9.99847190	      0.00000000	     29.47943574	     -5.14302128	      4.20110507	    -71.03165740	      0.21915720	    -15.41608941	      0.00000000	    -10.94361514	      6.94350565	      0.31075770
      6.91000000	     -6.28497773	      4.46470034	    -81.07821450	     -0.28246199	      0.95543745	     -2.77650306	     13.75742906	      9.61191291	     -4.85182750	    -12.57795930	      9.53556396	     -9.17739573	      0.00000000	     30.72959521	     -4.92424080	      3.67851919	    -70.10061863	      1.19571168	    -15.71527717	      0.00000000	    -11.44026464	      6.77173075	      0.78190970
      6.92000000	     -6.13522994	      4.30247165	    -81.68684240	     -0.28392231	      0.95605986	     -2.76135370	     12.33486231	      9.83853007	     -4.22651385	    -12.29962752	     10.40539348	     -8.67911054	      0.00000000	     31.94710676	     -4.76214860	      3.09278623	    -68.91010777	      1.75188546	    -15.94182733	      0.00000000	    -11.84532874	      6.43777813	      1.40320626
      6.93000000	     -5.76333842	      4.02077938	    -82.62357983	     -0.28551845	      0.95695140	     -2.74520673	     10.70568875	      9.85999992	     -3.39486653	    -12.07742595	     11.23614309	     -8.14762658	      0.00000000	     32.66242748	     -4.58577122	      2.14101928	    -67.28577271	      2.11556770	    -16.25419277	      0.00000000	    -12.33731537	      5.84766702	      2.27413173
      6.94000000	     -5.71077991	      3.90637116	    -83.11400123	     -0.28676050	      0.95675517	     -2.73054192	      9.53182384	     10.09792018	     -3.05619937	    -11.97132408	     12.18477328	     -7.56150533	      0.00000000	     33.92597197	     -4.51762899	      1.67461230	    -65.71670935	      2.07678908	    -16.64106772	      0.00000000	    -12.65517342	      5.61993381	      2.88320435
      6.95000000	     -5.53669999	      3.74816899	    -83.83929649	     -0.28811867	      0.95657626	     -2.71532768	      8.24600493	     10.26335214	     -2.14274764	    -11.94132535	     12.84825735	     -7.50655792	      0.00000000	     34.79554028	     -4.47488109	      1.00346847	    -63.74418449	      2.37019050	    -16.97979552	      0.00000000	    -13.01150787	      5.23682924	      3.42532009
      6.96000000	     -5.39528425	      3.56692209	    -84.58941953	     -0.28945090	      0.95614155	     -2.70016134	      6.96155643	     10.46143436	     -1.02835873	    -11.96122834	     13.64274660	     -7.74210162	      0.00000000	     35.68541474	     -4.53451198	      0.26352378	    -61.78400527	      2.52107683	    -17.25849705	      0.00000000	    -13.39072749	      4.88298526	      4.14115641
      6.97000000	     -5.24877681	      3.41705348	    -85.30928140	     -0.29058420	      0.95541436	     -2.68506067	      5.72593902	     10.63371213	      0.26986233	    -12.06827732	     14.46191229	     -8.21874112	      0.00000000	     36.40668618	     -4.58106311	     -0.41673848	    -59.45807290	      2.74212255	    -17.52756499	      0.00000000	    -13.76269947	      4.54131243	      4.82189983
